<svg width="287" height="293" viewBox="0 0 287 293" fill="none" xmlns="http://www.w3.org/2000/svg">
<path d="M0.0691669 142.953C1.83417 96.16 25.5482 53.002 68.8992 24.483C69.0272 24.531 70.1502 24.122 69.6372 25.093C66.2032 28.277 4.46516 101.207 61.2932 158.773C61.2932 158.773 91.1512 187.477 114.304 160.241C114.304 160.241 137.151 130.664 114.015 85.828C114.015 85.828 108.159 71.188 87.0602 62.107L104.052 43.359C104.052 43.359 118.411 49.52 129.53 66.23C129.53 66.23 130.123 48.637 116.646 29.89L142.991 0L169.071 29.609C169.071 29.609 157.078 46.6 156.195 66.511C156.195 66.511 164.386 53.034 181.971 43.36L198.657 62.108C198.657 62.108 182.612 67.395 171.863 85.637C162.621 102.539 155.506 138.687 172.279 160.86C172.279 160.86 191.051 187.478 224.071 159.289C224.071 159.289 284.783 104.89 217.845 26.241C217.845 26.241 214.187 23.008 218.294 24.765C247.88 46.305 283.306 74.711 286.964 145.602C285.52 231.568 227.952 292.936 143.89 292.936C61.5832 292.935 -2.40083 224.25 0.0691669 142.953Z" fill="white"/>
</svg>
